# xmcd CD database file
#
# Track frame offsets:
#	150
#	12581
#	23425
#	33419
#	44462
#	55643
#	68032
#	80736
#	90553
#	100356
#	114494
#	124586
#	135282
#	144863
#	153156
#	167413
#	177223
#	184093
#	190897
#	203022
#
# Disc length: 2867 seconds
#
# Revision: 0
# Processed by: cddbd v1.5.2PL0 Copyright (c) Steve Scherf et al.
# Submitted via: CDex 1.51
#
DISCID=f80b3114
DTITLE=Waylon Jennings - Johnny Cash - Willie Nelson - The Kings of Country Disc 1
DYEAR=2012
DGENRE=Country
TTITLE0=JohnnyCash_IWalkTheLine
TTITLE1=WaylonJennings_DreamBaby
TTITLE2=WillieNelson_BrokenPromises
TTITLE3=JohnnyCash_CryCryCry
TTITLE4=WaylonJennings_BigMamou
TTITLE5=WillieNelson_TheShelterOfYourArms
TTITLE6=JohnnyCash_FolsomPrisonBlues
TTITLE7=WillieNelson_HealingHandsOfTime
TTITLE8=JohnnyCash_RockIslandLine
TTITLE9=WillieNelson_RainyDayBlues
TTITLE10=JohnnyCash_HeyPorter
TTITLE11=WaylonJennings_BurningMemories
TTITLE12=WillieNelson_HalfAMan
TTITLE13=JohnnyCash_GuessThingsHappenThatWay
TTITLE14=WillieNelson_WhatCanYouDoToMeKnow
TTITLE15=JohnnyCash_BornToLose
TTITLE16=WaylonJennings_ItsSoEasy
TTITLE17=WillieNelson_BothEndsOfTheCandle
TTITLE18=WaylonJennings_DontThinkTwiceItsAlright
TTITLE19=JohnnyCash_GoodnightIrene
EXTD=YEAR: 2012
EXTT0=
EXTT1=
EXTT2=
EXTT3=
EXTT4=
EXTT5=
EXTT6=
EXTT7=
EXTT8=
EXTT9=
EXTT10=
EXTT11=
EXTT12=
EXTT13=
EXTT14=
EXTT15=
EXTT16=
EXTT17=
EXTT18=
EXTT19=
PLAYORDER=
